# xmcd
#
# Track frame offsets: 
#        150
#        34580
#        52172
#        69737
#        85667
#        104178
#        125278
#        146954
#        168932
#        182821
#        198750
#        222128
#
# Disc length: 3221 seconds
#
# Revision: 0
# Processed by: cddbd v1.5.2PL0 Copyright (c) Steve Scherf et al.
# Submitted via: ExactAudioCopy v0.99pb3
#
DISCID=b20c930c
DTITLE=Chick Willis - The Don Of The Blues
DYEAR=2008
DGENRE=Blues
TTITLE0=Bootie Call
TTITLE1=Don't Start Me To Talking
TTITLE2=Last Time
TTITLE3=Your Cat Is Killing My Dog
TTITLE4=I Had The Blues Two Times
TTITLE5=Trouble Tree
TTITLE6=Obama
TTITLE7=Juke Joint
TTITLE8=Undercover Hootchie
TTITLE9=Big Leg Woman
TTITLE10=It's All Over
TTITLE11=Bonus Track
EXTD=
EXTT0=
EXTT1=
EXTT2=
EXTT3=
EXTT4=
EXTT5=
EXTT6=
EXTT7=
EXTT8=
EXTT9=
EXTT10=
EXTT11=
PLAYORDER=
